<?xml version="1.0" encoding="UTF-8"?>
<!DOCTYPE svg PUBLIC "-//W3C//DTD SVG 1.1//EN" "http://www.w3.org/Graphics/SVG/1.1/DTD/svg11.dtd">
<!-- Creator: CorelDRAW X8 -->
<svg xmlns="http://www.w3.org/2000/svg" xml:space="preserve" width="42.3332mm" height="42.3332mm" version="1.1" style="shape-rendering:geometricPrecision; text-rendering:geometricPrecision; image-rendering:optimizeQuality; fill-rule:evenodd; clip-rule:evenodd"
viewBox="0 0 4233 4233"
 xmlns:xlink="http://www.w3.org/1999/xlink">
 <defs>
  <style type="text/css">
   <![CDATA[
    .fil0 {fill:#315530}
    .fil1 {fill:white}
   ]]>
  </style>
 </defs>
 <g id="Capa_x0020_1">
  <metadata id="CorelCorpID_0Corel-Layer"/>
  <rect class="fil0" x="73" y="108" width="4067" height="4067" rx="665" ry="665"/>
  <path class="fil1" d="M749 2113c0,130 7,223 37,351 22,95 50,170 88,252 27,60 86,166 122,217 49,70 118,155 176,206l92 80c88,72 186,128 289,180 146,74 366,129 554,129l45 0c254,0 561,-81 761,-224 47,-34 61,-46 104,-81 57,-47 106,-97 154,-154 67,-80 143,-216 182,-311 67,-163 111,-352 111,-549 0,-107 -4,-177 -18,-282 -3,-30 -3,-47 -38,-47l-1240 0c-39,0 -37,19 -37,50l0 443c0,60 -2,50 110,50l364 1c63,0 187,1 244,-2 56,-2 31,42 10,106 -14,42 -32,79 -53,114 -44,73 -97,130 -155,178 -45,37 -48,37 -100,65 -127,68 -269,98 -418,98 -325,0 -618,-202 -748,-490 -29,-66 -37,-81 -54,-154 -63,-280 6,-546 190,-757 55,-64 112,-112 185,-159 263,-170 636,-167 893,27l39 31c8,8 26,30 43,19l361 -361c5,-4 12,-13 11,-24 -2,-8 -10,-17 -15,-21l-57 -46c-191,-154 -480,-292 -809,-292l-43 0c-199,0 -403,48 -564,120 -81,36 -154,80 -218,124l-96 74c-9,7 -15,14 -23,20 -8,6 -15,13 -23,20 -20,16 -88,86 -107,108 -39,47 -56,63 -96,118 -30,43 -71,110 -95,161 -9,21 -19,37 -29,57 -73,151 -129,364 -129,555z"/>
 </g>
</svg>
