<svg width="45" height="45" viewBox="0 0 45 45" fill="none" xmlns="http://www.w3.org/2000/svg">
<path id="Twitter" d="M40.3745 11.2148C40.403 11.707 40.403 12.1992 40.403 12.6914C40.403 27.7031 31.1232 45 14.1625 45C8.93719 45 4.08315 43.1366 0 39.9024C0.742415 40.0078 1.45618 40.043 2.22716 40.043C6.53865 40.043 10.5076 38.2501 13.6771 35.1915C9.62248 35.0859 6.22461 31.8164 5.05391 27.3164C5.62502 27.4218 6.19605 27.4921 6.79573 27.4921C7.62375 27.4921 8.45186 27.3515 9.22275 27.1055C4.99686 26.0507 1.82734 21.4804 1.82734 15.9609V15.8203C3.05509 16.6641 4.48288 17.1914 5.9961 17.2617C3.51195 15.2226 1.88447 11.7421 1.88447 7.80461C1.88447 5.69527 2.34124 3.76168 3.14078 2.07417C7.68079 8.96479 14.5051 13.4647 22.1573 13.957C22.0146 13.1132 21.9289 12.2344 21.9289 11.3555C21.9289 5.0976 26.0406 0 31.1516 0C33.8071 0 36.2055 1.37109 37.8902 3.58594C39.9746 3.09377 41.9733 2.14451 43.7437 0.843756C43.0583 3.48053 41.6021 5.69538 39.6891 7.10153C41.5451 6.85556 43.344 6.22261 45 5.34379C43.7439 7.5937 42.1733 9.59752 40.3745 11.2148Z" fill="white"/>
</svg>
