<svg width="45" height="45" viewBox="0 0 45 45" fill="none" xmlns="http://www.w3.org/2000/svg">
<path id="Tik Tok" d="M45 18.4538C40.5765 18.4631 36.2615 17.256 32.6646 15.0032V30.715C32.6634 33.625 31.6468 36.4653 29.7509 38.8562C27.8549 41.247 25.17 43.0744 22.055 44.0941C18.94 45.1137 15.5435 45.2769 12.3196 44.562C9.0957 43.847 6.19812 42.2879 4.01428 40.0932C1.83044 37.8984 0.464442 35.1726 0.0989405 32.2802C-0.266561 29.3879 0.385855 26.4668 1.96895 23.9076C3.55205 21.3484 5.99036 19.2731 8.95786 17.9592C11.9254 16.6452 15.2806 16.1553 18.5749 16.5549V24.4574C17.0674 24.0425 15.4487 24.055 13.9498 24.4931C12.4509 24.9312 11.1485 25.7725 10.2287 26.8968C9.30888 28.0212 8.81862 29.3711 8.82793 30.7538C8.83723 32.1365 9.34564 33.4813 10.2805 34.596C11.2154 35.7108 12.529 36.5387 14.0337 36.9613C15.5384 37.3839 17.1572 37.3797 18.659 36.9493C20.1608 36.5189 21.4688 35.6843 22.3961 34.5647C23.3235 33.4451 23.8228 32.0977 23.8228 30.715V0H32.6646C32.6585 0.653316 32.721 1.30574 32.8515 1.94903C33.1587 3.38507 33.7976 4.75117 34.7289 5.96378C35.6603 7.17638 36.8646 8.21 38.2681 9.0014C40.265 10.1567 42.6061 10.7724 45 10.772V18.4538Z" fill="white"/>
</svg>
