<svg width="46" height="41" viewBox="0 0 46 41" fill="none" xmlns="http://www.w3.org/2000/svg">
<path id="YouTube" d="M44.3559 6.88365C43.8384 4.4201 42.3136 2.4799 40.3775 1.82146C36.8682 0.625 22.7963 0.625 22.7963 0.625C22.7963 0.625 8.72444 0.625 5.21506 1.82146C3.27897 2.48 1.75412 4.4201 1.23658 6.88365C0.296265 11.349 0.296265 20.6654 0.296265 20.6654C0.296265 20.6654 0.296265 29.9819 1.23658 34.4472C1.75412 36.9107 3.27897 38.7701 5.21506 39.4285C8.72444 40.625 22.7963 40.625 22.7963 40.625C22.7963 40.625 36.8681 40.625 40.3775 39.4285C42.3136 38.7701 43.8384 36.9107 44.3559 34.4472C45.2963 29.9819 45.2963 20.6654 45.2963 20.6654C45.2963 20.6654 45.2963 11.349 44.3559 6.88365ZM18.194 29.1241V12.2068L29.9553 20.6656L18.194 29.1241Z" fill="white"/>
</svg>
