<?xml version="1.0" encoding="UTF-8"?>
<!DOCTYPE svg PUBLIC "-//W3C//DTD SVG 1.1//EN" "http://www.w3.org/Graphics/SVG/1.1/DTD/svg11.dtd">
<!-- Creator: CorelDRAW X8 -->
<svg xmlns="http://www.w3.org/2000/svg" xml:space="preserve" width="144.952mm" height="84.6666mm" version="1.1" style="shape-rendering:geometricPrecision; text-rendering:geometricPrecision; image-rendering:optimizeQuality; fill-rule:evenodd; clip-rule:evenodd"
viewBox="0 0 14495 8467"
 xmlns:xlink="http://www.w3.org/1999/xlink">
 <defs>
  <style type="text/css">
   <![CDATA[
    .fil1 {fill:black}
    .fil2 {fill:#6BC213}
    .fil0 {fill:#77380A}
    .fil3 {fill:gray}
    .fil4 {fill:#909090}
   ]]>
  </style>
 </defs>
 <g id="Capa_x0020_1">
  <metadata id="CorelCorpID_0Corel-Layer"/>
  <path class="fil0" d="M12394 6712c-393,243 -1913,268 -2482,275 -903,11 -1809,27 -2710,59 -1093,39 -2187,117 -3281,145 -93,2 -518,-34 -398,292 67,185 397,118 589,112 228,-7 452,-15 678,-25 872,-35 1752,-91 2624,-121 906,-32 1819,-42 2731,-55 819,-12 1742,-39 2453,-308 151,-58 355,-148 436,-243 151,-177 58,-359 -105,-445 -269,-141 -930,-89 -1281,-107 -1816,-97 -3657,-45 -5483,-45 -215,0 -4710,-21 -4808,13 -188,63 -176,342 16,389 146,36 7745,8 8285,8 455,0 924,-22 1376,6 466,29 888,50 1360,50z"/>
  <path class="fil1" d="M12188 3359c-321,69 -613,214 -798,486 -190,278 -284,606 -195,1008 339,1529 2931,1111 2555,-568 -138,-615 -767,-1097 -1562,-926zm104 466c-969,248 -614,1733 370,1484 369,-93 642,-462 537,-939 -81,-368 -450,-662 -907,-545z"/>
  <path class="fil2" d="M9374 745c-678,88 -1223,634 -1108,1426 95,655 722,1116 1481,1025 669,-81 1219,-638 1110,-1414 -92,-656 -723,-1136 -1483,-1037zm41 476c-964,184 -714,1715 320,1495 904,-192 695,-1688 -320,-1495z"/>
  <path class="fil1" d="M2061 4846c-98,-90 -799,-1339 -882,-1432 -28,-31 -12,-20 -52,-44l-423 0 -8 2392 516 0 3 -1388 697 1128c330,8 203,91 595,-570 62,-104 115,-189 175,-291 53,-90 107,-221 186,-286l6 1403 505 4c21,-73 23,-2236 1,-2388l-446 -5 -873 1477z"/>
  <polygon class="fil2" points="3559,3086 3563,3166 5403,3166 5411,2721 4112,2721 4109,2168 5218,2167 5221,1746 4109,1736 4109,1218 5361,1218 5366,774 3556,774 "/>
  <path class="fil1" d="M8986 5758l1839 4 -2 -445 -1300 0 2 -553 1107 0 2 -431c-201,0 -975,25 -1110,-12l-1 -499 1257 -8 3 -436 -1797 0 0 2380z"/>
  <path class="fil1" d="M6142 4841l1 -1465 -526 0c0,244 45,1315 -25,1449 19,599 -806,655 -985,243 -167,-384 12,-1269 -77,-1698l-536 0c-42,323 -12,1014 -6,1368 7,446 187,766 473,921 641,348 1683,86 1681,-818z"/>
  <path class="fil1" d="M6739 5117l-175 402c376,344 1555,471 1899,-135 125,-221 114,-509 -32,-689 -309,-380 -990,-295 -1217,-519 -128,-124 -67,-393 369,-402 336,-7 451,98 696,179l170 -426c-250,-80 -355,-165 -674,-192 -1256,-104 -1375,897 -949,1208 462,336 1163,217 1169,554 6,354 -649,286 -956,165 -102,-40 -222,-123 -300,-145z"/>
  <path class="fil2" d="M8025 2794l-354 -337c-459,523 -1367,289 -1361,-492 3,-366 200,-621 475,-715 338,-115 649,-30 877,229 65,-26 130,-110 188,-158 56,-46 121,-96 172,-161 -158,-335 -911,-544 -1461,-345 -1464,529 -822,2753 846,2349 132,-32 244,-79 344,-143 230,-148 157,-138 274,-227z"/>
  <path class="fil3" d="M8986 5758l0 -2380 1797 0c-56,-34 -118,-22 -194,-22 -306,2 -1505,-22 -1619,16 -31,273 -1,1712 -6,2234 -1,101 -9,97 22,152z"/>
  <path class="fil4" d="M5592 4825c70,-134 25,-1205 25,-1449l526 0 -1 1465c46,-91 36,-1291 14,-1470 -92,-34 -461,-34 -553,0l-11 1454z"/>
 </g>
</svg>
